<svg xmlns="http://www.w3.org/2000/svg" viewBox="0 0 32 32"><g fill="none" fill-rule="evenodd"><path fill="#00B5BD" d="M32 16a16 16 0 11-32 0 16 16 0 0132 0"/><path fill="#FFF" d="M21.875 9.43v3.56H15.84v6.848l.034.578.135.508.204.44.305.408.339.304.441.238.509.135.576.034.814-.034.814-.169.881-.305.983-.441v3.764l-1.288.474-1.187.339-1.153.169-1.186.069-1.255-.102-.611-.102-.61-.135-.542-.17-.543-.237-.509-.305-.44-.34-.44-.373-.374-.475-.305-.508-.305-.542-.203-.644-.17-.713-.101-.745-.035-.848v-7.12H8.245v-.984l6.272-7.052h1.323V9.43z"/></g></svg>