<svg xmlns="http://www.w3.org/2000/svg" viewBox="0 0 32 32"><g fill="none" fill-rule="evenodd"><path fill="#00B5BD" d="M32 16a16 16 0 1 1-32 0 16 16 0 0 1 32 0"/><polygon fill="#FFFFFF" points="21.875 9.43 21.875 12.99 15.84 12.99 15.84 19.838 15.874 20.416 16.009 20.924 16.213 21.364 16.518 21.772 16.857 22.076 17.298 22.314 17.807 22.449 18.383 22.483 19.197 22.449 20.011 22.28 20.892 21.975 21.875 21.534 21.875 25.298 20.587 25.772 19.4 26.111 18.247 26.28 17.061 26.349 15.806 26.247 15.195 26.145 14.585 26.01 14.043 25.84 13.5 25.603 12.991 25.298 12.551 24.958 12.111 24.585 11.737 24.11 11.432 23.602 11.127 23.06 10.924 22.416 10.754 21.703 10.653 20.958 10.618 20.11 10.618 12.99 8.245 12.99 8.245 12.006 14.517 4.954 15.84 4.954 15.84 9.43"/></g></svg>